<?xml version="1.0" encoding="UTF-8" standalone="no"?>
<svg
   xmlns:dc="http://purl.org/dc/elements/1.1/"
   xmlns:cc="http://creativecommons.org/ns#"
   xmlns:rdf="http://www.w3.org/1999/02/22-rdf-syntax-ns#"
   xmlns:svg="http://www.w3.org/2000/svg"
   xmlns="http://www.w3.org/2000/svg"
   version="1.1"
   id="svg2"
   viewBox="0 0 96.000001 96.000002"
   height="96"
   width="96">
  <defs
     id="defs4" />
  <metadata
     id="metadata7">
    <rdf:RDF>
      <cc:Work
         rdf:about="">
        <dc:format>image/svg+xml</dc:format>
        <dc:type
           rdf:resource="http://purl.org/dc/dcmitype/StillImage" />
        <dc:title></dc:title>
      </cc:Work>
    </rdf:RDF>
  </metadata>
  <g
     transform="translate(0,-956.36216)"
     id="layer1">
    <path
       id="rect3336"
       d="m 78.5,1032.9159 c 0,1.065 -0.857411,1.9998 -1.922447,1.9998 l -72.6551064,0 C 2.8574112,1034.9157 2,1034.0582 2,1032.9932 l 0,-57.26217 c 0,-1.06504 0.8574112,-1.92245 1.9224466,-1.92245 l 72.6551064,0 c 1.065036,0 1.922447,0.85741 1.922447,1.92245 l 0,25.18467"
       style="fill:none;fill-opacity:1;stroke:#000000;stroke-width:4;stroke-linecap:butt;stroke-linejoin:round;stroke-miterlimit:4;stroke-dasharray:none;stroke-dashoffset:0;stroke-opacity:1" />
    <text
       id="text4146"
       y="1024.7365"
       x="32.52734"
       style="font-style:normal;font-variant:normal;font-weight:normal;font-stretch:normal;font-size:55.89624786px;line-height:125%;font-family:'DejaVu Sans';-inkscape-font-specification:'DejaVu Sans, Normal';text-align:center;letter-spacing:0px;word-spacing:0px;writing-mode:lr-tb;text-anchor:middle;fill:#000000;fill-opacity:1;stroke:none;stroke-width:1px;stroke-linecap:butt;stroke-linejoin:miter;stroke-opacity:1"
       xml:space="preserve"><tspan
         y="1024.7365"
         x="32.52734"
         id="tspan4148">!</tspan></text>
    <path
       style="fill:#c80000;fill-opacity:1"
       id="path4204"
       d="m 52.56,1016.9157 c 0,-4.104 3.336,-7.4401 7.44,-7.4401 l 9.599999,0 0,-4.56 -9.599999,0 c -6.624,0 -12,5.376 -12,12.0001 0,6.624 5.376,12 12,12 l 9.599999,0 0,-4.56 -9.599999,0 c -4.104,0 -7.44,-3.3359 -7.44,-7.44 z m 9.84,2.4 19.199998,0 0,-4.8001 -19.199998,0 0,4.8001 z m 21.599998,-14.4001 -9.599999,0 0,4.56 9.599999,0 c 4.104,0 7.44,3.3361 7.44,7.4401 0,4.1041 -3.336,7.44 -7.44,7.44 l -9.599999,0 0,4.56 9.599999,0 c 6.624,0 12,-5.376 12,-12 0,-6.6241 -5.376,-12.0001 -12,-12.0001 z" />
  </g>
</svg>
